<svg width="14" height="14" viewBox="0 0 14 14" fill="none" xmlns="http://www.w3.org/2000/svg">
<g clip-path="url(#clip0)">
<path d="M13.8799 5.92109C14.04 5.76094 14.04 5.50122 13.8799 5.34104L8.65949 0.120623C8.49931 -0.0395567 8.23963 -0.0395567 8.07945 0.120623L6.04926 2.15076L11.8497 7.95128L13.8799 5.92109Z" fill="#888888"/>
<path d="M4.20044 13.2786C4.66569 12.8133 4.92193 12.1956 4.9219 11.5391C4.9219 11.0474 5.72094 10.0576 6.53805 9.71908C6.77439 9.62122 7.09658 9.54501 7.28946 9.73789C7.49197 9.94035 7.51289 9.96132 7.5136 9.962C7.51436 9.9628 7.51516 9.96362 7.51595 9.96438C7.82488 10.2733 8.23687 10.4434 8.67609 10.4434C9.11523 10.4434 9.52725 10.2733 9.83618 9.96433L11.2697 8.53083L5.46924 2.73035L4.03569 4.1639C3.72676 4.47283 3.5566 4.88482 3.5566 5.32404C3.5566 5.76321 3.72673 6.17519 4.03607 6.48456C4.03722 6.48571 4.05336 6.50179 4.26221 6.71061C4.34413 6.79256 4.38233 6.8931 4.38233 7.02703C4.38233 7.83171 3.10584 9.07817 2.46096 9.07817C1.10406 9.07814 5.46875e-05 10.1821 0 11.5391V11.5391C2.73438e-05 12.1956 0.256266 12.8134 0.72152 13.2785C1.18675 13.7438 1.8045 14 2.46096 14C3.11743 14 3.73521 13.7438 4.20044 13.2786ZM2.05078 11.5391C2.05078 11.3126 2.23442 11.1289 2.46094 11.1289C2.68745 11.1289 2.87109 11.3126 2.87109 11.5391C2.87109 11.7656 2.68745 11.9492 2.46094 11.9492C2.23442 11.9492 2.05078 11.7656 2.05078 11.5391Z" fill="#888888"/>
</g>
<defs>
<clipPath id="clip0">
<rect width="14" height="14" fill="white"/>
</clipPath>
</defs>
</svg>
