<svg width="16" height="16" viewBox="0 0 16 16" fill="none" xmlns="http://www.w3.org/2000/svg">
<path d="M8.38098 4.95239V8.76189L11.6419 10.6971L12.1905 9.77143L9.52383 8.19046V4.95239H8.38098Z" fill="#3E3E3E"/>
<path d="M9.13904 1.14282C5.34857 1.14282 2.28571 4.21329 2.28571 7.99997H0L2.96761 10.9676L3.02093 11.078L6.09525 7.99997H3.80954C3.80954 5.05522 6.19811 2.66664 9.14286 2.66664C12.0876 2.66664 14.4762 5.05522 14.4762 7.99997C14.4762 10.9447 12.0876 13.3333 9.14286 13.3333C7.66857 13.3333 6.33904 12.7314 5.37525 11.7676L4.29714 12.8457C5.53525 14.0876 7.24571 14.8571 9.13904 14.8571C12.9295 14.8571 16 11.7866 16 7.99997C16 4.21329 12.9295 1.14282 9.13904 1.14282Z" fill="#3E3E3E"/>
</svg>
