<svg width="14" height="16" viewBox="0 0 14 16" fill="none" xmlns="http://www.w3.org/2000/svg">
<path d="M11.5152 6.37284C11.0815 5.5846 10.052 5.28111 9.21734 5.66331C8.82388 4.94824 7.92507 4.61731 7.11706 4.87715V1.61858C7.11706 0.749959 6.36351 0.0242154 5.43702 0.000656785C4.46624 -0.0248419 3.66183 0.695359 3.66183 1.59654V9.79452L2.98697 9.13987C2.33918 8.51169 1.25456 8.46748 0.56893 9.04162C-0.154551 9.64735 -0.190606 10.6788 0.475577 11.3271L4.35419 15.1592C4.89515 15.6935 5.65888 16 6.44968 16H11.1276C12.7115 16 14 14.8064 14 13.3393V7.80493C14 6.62243 12.6534 5.85151 11.5152 6.37284Z" fill="#3E3E3E"/>
</svg>
