<svg width="105" height="38" viewBox="0 0 105 38" fill="none" xmlns="http://www.w3.org/2000/svg">
<path d="M7.31881 0C11.2277 0 13.3693 2.49944 13.3693 3.98216C13.3693 4.95652 12.8495 5.54961 11.8307 5.54961C9.85545 5.54961 10.4376 2.79599 7.31881 2.79599C5.17723 2.79599 3.4099 4.68116 3.4099 7.98551C3.4099 10.7603 4.49109 13.175 7.44356 13.175C10.1257 13.175 10.0634 10.252 11.7059 10.252C12.5376 10.252 13.3693 10.7391 13.3693 11.5864C13.3693 13.7893 10.7495 15.971 7.44356 15.971C2.76535 15.971 0 13.2386 0 7.98551C0 3.68562 2.49505 0 7.31881 0Z" fill="#868688"/>
<path d="M22.3931 0C27.3 0 29.9614 3.32553 29.9614 7.79487C29.9614 12.0948 27.5079 15.971 22.3931 15.971C17.0287 15.971 14.8248 12.4125 14.8248 7.79487C14.8248 3.32553 17.4862 0 22.3931 0ZM22.3931 13.175C25.4911 13.175 26.5515 10.7179 26.5515 7.79487C26.5515 4.87179 25.1792 2.79599 22.3931 2.79599C19.6069 2.79599 18.2347 4.87179 18.2347 7.79487C18.2347 10.7179 19.1911 13.175 22.3931 13.175Z" fill="#868688"/>
<path d="M32.3941 2.11816C32.3941 0.677805 33.0802 0.0847168 34.5357 0.0847168C35.2426 0.0847168 35.8663 0.360079 36.2406 0.995531L42.2079 10.8027H42.2495V1.75807C42.2495 0.635441 42.8733 0.0847168 43.8921 0.0847168C44.9109 0.0847168 45.5347 0.635441 45.5347 1.75807V13.7257C45.5347 15.1026 44.9525 15.8863 43.5178 15.8863C42.4366 15.8863 42.0832 15.6533 41.6465 14.9543L35.7208 5.42251H35.6792V14.2129C35.6792 15.3356 35.0555 15.8863 34.0366 15.8863C33.0178 15.8863 32.3941 15.3356 32.3941 14.2129V2.11816Z" fill="#868688"/>
<path d="M52.2921 3.28318H49.0693C48.0921 3.28318 47.302 2.77482 47.302 1.82165C47.302 0.868469 48.0921 0.360107 49.0693 0.360107H58.9247C59.902 0.360107 60.6921 0.868469 60.6921 1.82165C60.6921 2.77482 59.902 3.28318 58.9247 3.28318H55.702V14.1494C55.702 15.1873 55.0366 15.8863 53.997 15.8863C52.9574 15.8863 52.2921 15.1873 52.2921 14.1494V3.28318Z" fill="#868688"/>
<path d="M62.6049 2.39355C62.6049 0.847287 63.395 0.360107 64.601 0.360107H72.6059C73.604 0.360107 74.3317 0.656652 74.3317 1.7581C74.3317 2.85955 73.604 3.15609 72.6059 3.15609H66.0148V6.46044H71.795C72.6891 6.46044 73.396 6.71462 73.396 7.79489C73.396 8.87516 72.6891 9.12934 71.795 9.12934H66.0148V12.815H72.7723C73.7703 12.815 74.498 13.1115 74.498 14.213C74.498 15.3144 73.7703 15.6109 72.7723 15.6109H64.601C63.395 15.6109 62.6049 15.1238 62.6049 13.5775V2.39355Z" fill="#868688"/>
<path d="M76.702 2.11816C76.702 0.677805 77.3881 0.0847168 78.8436 0.0847168C79.5505 0.0847168 80.1742 0.360079 80.5485 0.995531L86.5158 10.8027H86.5574V1.75807C86.5574 0.635441 87.1812 0.0847168 88.2 0.0847168C89.2188 0.0847168 89.8426 0.635441 89.8426 1.75807V13.7257C89.8426 15.1026 89.2604 15.8863 87.8257 15.8863C86.7445 15.8863 86.3911 15.6533 85.9544 14.9543L80.0287 5.42251H79.9871V14.2129C79.9871 15.3356 79.3633 15.8863 78.3445 15.8863C77.3257 15.8863 76.702 15.3356 76.702 14.2129V2.11816Z" fill="#868688"/>
<path d="M96.6 3.28318H93.3772C92.4 3.28318 91.6099 2.77482 91.6099 1.82165C91.6099 0.868469 92.4 0.360107 93.3772 0.360107H103.233C104.21 0.360107 105 0.868469 105 1.82165C105 2.77482 104.21 3.28318 103.233 3.28318H100.01V14.1494C100.01 15.1873 99.3445 15.8863 98.3049 15.8863C97.2653 15.8863 96.6 15.1873 96.6 14.1494V3.28318Z" fill="#868688"/>
<path d="M7.31881 22.0291C11.2277 22.0291 13.3693 24.5285 13.3693 26.0112C13.3693 26.9856 12.8495 27.5787 11.8307 27.5787C9.85545 27.5787 10.4376 24.825 7.31881 24.825C5.17723 24.825 3.4099 26.7102 3.4099 30.0146C3.4099 32.7894 4.49109 35.2041 7.44356 35.2041C10.1257 35.2041 10.0634 32.281 11.7059 32.281C12.5376 32.281 13.3693 32.7682 13.3693 33.6155C13.3693 35.8183 10.7495 38.0001 7.44356 38.0001C2.76535 38.0001 0 35.2676 0 30.0146C0 25.7147 2.49505 22.0291 7.31881 22.0291Z" fill="#868688"/>
<path d="M15.4901 24.4226C15.4901 22.8763 16.2802 22.3892 17.4862 22.3892H23.1624C27.2168 22.3892 28.298 24.6556 28.298 26.6255C28.298 28.2777 27.3416 29.9087 25.7198 30.2899V30.3323C27.4663 30.5865 27.7782 31.8786 27.7782 33.4248C27.7782 35.1829 28.2357 35.8396 28.2357 36.5597C28.2357 37.3646 27.4248 37.9154 26.6347 37.9154C24.7634 37.9154 24.6178 36.0725 24.6178 35.4583C24.6178 32.7894 24.1396 31.7091 22.2683 31.7091H18.9V36.1785C18.9 37.2164 18.2347 37.9154 17.1951 37.9154C16.1555 37.9154 15.4901 37.2164 15.4901 36.1785V24.4226ZM18.9 29.1673H22.3099C23.599 29.1673 24.8881 28.8284 24.8881 27.1127C24.8881 25.4817 23.9109 25.0581 22.4139 25.0581H18.9V29.1673Z" fill="#868688"/>
<path d="M30.9802 24.4226C30.9802 22.8763 31.7703 22.3892 32.9762 22.3892H40.9812C41.9792 22.3892 42.7069 22.6857 42.7069 23.7872C42.7069 24.8886 41.9792 25.1851 40.9812 25.1851H34.3901V28.4895H40.1703C41.0643 28.4895 41.7713 28.7437 41.7713 29.8239C41.7713 30.9042 41.0643 31.1584 40.1703 31.1584H34.3901V34.844H41.1475C42.1455 34.844 42.8733 35.1406 42.8733 36.242C42.8733 37.3435 42.1455 37.64 41.1475 37.64H32.9762C31.7703 37.64 30.9802 37.1528 30.9802 35.6066V24.4226Z" fill="#868688"/>
<path d="M48.4871 23.1729C48.7782 22.3891 49.3188 22.1138 50.1505 22.1138H50.9614C51.7307 22.1138 52.4168 22.3044 52.7911 23.3847L56.9079 35.0558C57.0327 35.3947 57.2406 36.009 57.2406 36.3902C57.2406 37.2375 56.5129 37.9153 55.6396 37.9153C54.8911 37.9153 54.3505 37.64 54.101 36.9622L53.2277 34.4203H47.7386L46.8445 36.9622C46.6158 37.64 46.1376 37.9153 45.3267 37.9153C44.3911 37.9153 43.7465 37.3222 43.7465 36.3902C43.7465 36.009 43.9544 35.3947 44.0792 35.0558L48.4871 23.1729ZM50.5455 25.8841H50.5039L48.4871 32.0056H52.4792L50.5455 25.8841Z" fill="#868688"/>
<path d="M62.6673 25.3122H59.4445C58.4673 25.3122 57.6772 24.8039 57.6772 23.8507C57.6772 22.8975 58.4673 22.3892 59.4445 22.3892H69.3C70.2772 22.3892 71.0673 22.8975 71.0673 23.8507C71.0673 24.8039 70.2772 25.3122 69.3 25.3122H66.0772V36.1785C66.0772 37.2164 65.4119 37.9154 64.3723 37.9154C63.3327 37.9154 62.6673 37.2164 62.6673 36.1785V25.3122Z" fill="#868688"/>
<path d="M79.8 22.0291C84.7069 22.0291 87.3683 25.3546 87.3683 29.8239C87.3683 34.1238 84.9149 38.0001 79.8 38.0001C74.4356 38.0001 72.2317 34.4415 72.2317 29.8239C72.2317 25.3546 74.8931 22.0291 79.8 22.0291ZM79.8 35.2041C82.898 35.2041 83.9584 32.747 83.9584 29.8239C83.9584 26.9008 82.5861 24.825 79.8 24.825C77.0139 24.825 75.6416 26.9008 75.6416 29.8239C75.6416 32.747 76.598 35.2041 79.8 35.2041Z" fill="#868688"/>
<path d="M89.8634 24.4226C89.8634 22.8763 90.6535 22.3892 91.8594 22.3892H97.5356C101.59 22.3892 102.671 24.6556 102.671 26.6255C102.671 28.2777 101.715 29.9087 100.093 30.2899V30.3323C101.84 30.5865 102.151 31.8786 102.151 33.4248C102.151 35.1829 102.609 35.8396 102.609 36.5597C102.609 37.3646 101.798 37.9154 101.008 37.9154C99.1366 37.9154 98.9911 36.0725 98.9911 35.4583C98.9911 32.7894 98.5129 31.7091 96.6416 31.7091H93.2733V36.1785C93.2733 37.2164 92.6079 37.9154 91.5683 37.9154C90.5287 37.9154 89.8634 37.2164 89.8634 36.1785V24.4226ZM93.2733 29.1673H96.6832C97.9723 29.1673 99.2614 28.8284 99.2614 27.1127C99.2614 25.4817 98.2842 25.0581 96.7871 25.0581H93.2733V29.1673Z" fill="#868688"/>
</svg>
