<svg width="11" height="16" viewBox="0 0 11 16" fill="none" xmlns="http://www.w3.org/2000/svg">
<path d="M10.109 10.1755C10.6026 9.34341 10.93 8.29101 10.9935 7.24969C11.0338 6.58132 10.886 5.87972 10.5659 5.21997C10.0638 4.18357 9.20136 3.60136 8.36821 3.03885C7.74639 2.61912 7.15879 2.22278 6.74343 1.65658L6.66891 1.55565C6.42336 1.22331 6.14605 0.84666 6.10207 0.530324C6.05809 0.210296 5.76979 -0.0174164 5.4546 0.00104681C5.13454 0.0232026 4.88654 0.290303 4.88654 0.614024V11.5811C4.37468 11.2685 3.74431 11.0765 3.05409 11.0765C1.37068 11.0765 0 12.1806 0 13.5382C0 14.8959 1.37068 16 3.05409 16C4.7375 16 6.10818 14.8959 6.10818 13.5382V6.36469C7.02563 6.71795 8.52702 7.61772 8.93993 9.71883C8.86297 9.8333 8.78967 9.95639 8.70415 10.0549C8.4806 10.3097 8.50503 10.6986 8.75913 10.9226C9.01079 11.1491 9.39682 11.122 9.62038 10.8672C9.78408 10.6801 9.92946 10.461 10.0687 10.2321C10.0834 10.2149 10.0969 10.1964 10.109 10.1755Z" fill="#3E3E3E"/>
</svg>
