<svg width="16" height="16" viewBox="0 0 16 16" fill="none" xmlns="http://www.w3.org/2000/svg">
<path d="M13.6903 8.54126H12.4529C12.5791 8.88657 12.648 9.25923 12.648 9.64764V14.3242C12.648 14.4861 12.6198 14.6416 12.5685 14.7861H14.6141C15.3783 14.7861 15.9999 14.1645 15.9999 13.4003V10.8509C16 9.57739 14.9639 8.54126 13.6903 8.54126Z" fill="#3E3E3E"/>
<path d="M3.35204 9.64764C3.35204 9.2592 3.42094 8.88657 3.54707 8.54126H2.30969C1.03613 8.54126 0 9.57739 0 10.851V13.4004C0 14.1645 0.621657 14.7862 1.38582 14.7862H3.43151C3.38023 14.6416 3.35204 14.4861 3.35204 14.3242V9.64764Z" fill="#3E3E3E"/>
<path d="M9.41425 7.33789H6.58544C5.31188 7.33789 4.27576 8.37402 4.27576 9.64758V14.3242C4.27576 14.5792 4.48257 14.7861 4.73769 14.7861H11.262C11.5171 14.7861 11.7239 14.5793 11.7239 14.3242V9.64758C11.7239 8.37402 10.6878 7.33789 9.41425 7.33789Z" fill="#3E3E3E"/>
<path d="M7.99997 1.21387C6.46835 1.21387 5.22229 2.45993 5.22229 3.99159C5.22229 5.0305 5.7957 5.93785 6.64251 6.41422C7.04416 6.64016 7.50723 6.76929 7.99997 6.76929C8.49272 6.76929 8.95579 6.64016 9.35744 6.41422C10.2043 5.93785 10.7777 5.03047 10.7777 3.99159C10.7777 2.45996 9.5316 1.21387 7.99997 1.21387Z" fill="#3E3E3E"/>
<path d="M3.12233 3.80273C1.97686 3.80273 1.04498 4.73461 1.04498 5.88009C1.04498 7.02556 1.97686 7.95744 3.12233 7.95744C3.41289 7.95744 3.68958 7.89725 3.94093 7.78906C4.37549 7.60197 4.7338 7.27078 4.95552 6.85593C5.11115 6.56478 5.19968 6.23262 5.19968 5.88009C5.19968 4.73464 4.2678 3.80273 3.12233 3.80273Z" fill="#3E3E3E"/>
<path d="M12.8776 3.80273C11.7322 3.80273 10.8003 4.73461 10.8003 5.88009C10.8003 6.23265 10.8888 6.56481 11.0445 6.85593C11.2662 7.27081 11.6245 7.602 12.059 7.78906C12.3104 7.89725 12.5871 7.95744 12.8776 7.95744C14.0231 7.95744 14.955 7.02556 14.955 5.88009C14.955 4.73461 14.0231 3.80273 12.8776 3.80273Z" fill="#3E3E3E"/>
</svg>
