<svg width="16" height="17" viewBox="0 0 16 17" fill="none" xmlns="http://www.w3.org/2000/svg">
<path d="M11.876 4.43169L8.376 0.181688C8.281 0.0669375 8.144 0 8 0C7.856 0 7.719 0.0669375 7.624 0.181688L4.124 4.43169C3.995 4.58894 3.963 4.811 4.045 5.00119C4.126 5.19031 4.304 5.3125 4.5 5.3125H6.5V12.2188C6.5 12.512 6.724 12.75 7 12.75H8.99999C9.27599 12.75 9.49999 12.512 9.49999 12.2188V5.3125H11.5C11.696 5.3125 11.874 5.19137 11.955 5.00119C12.036 4.811 12.006 4.58787 11.876 4.43169Z" fill="#3E3E3E"/>
<path d="M13.5 11.6875V14.875H2.5V11.6875H0.5V15.9375C0.5 16.5251 0.948 17 1.5 17H14.5C15.053 17 15.5 16.5251 15.5 15.9375V11.6875H13.5Z" fill="#3E3E3E"/>
</svg>
